PathFileType	4	(X/Y/Z)	/Users/itak/Documents/Research/Walk-IL/dataset/trc/00303_00010.trc
DataRate	CameraRate	NumFrames	NumMarkers	Units	OrigDataRate	OrigDataStartFrame	OrigNumFrames
100.000000	100.000000	4	56	mm	100.000000	297	396
Frame#	Time	RPSI			LPSI			L3			STRN			T10			C7			CLAV			RBAK			LBAK			LSHO			LUPA			LAEL			LAOL			LWTS			LWPS			LFRA			LIFD			LHPS			LHTS			RSHO			RUPA			RAEL			RAOL			RWTS			RWPS			RFRA			RIFD			RBHD			LFHD			RFHD			LBHD			LHIP			RHIP			RASI			LASI			LKNE			LTHI			LANK			LTIP			LTOE			LMT1			LMT5			LHEE			RKNE			RTHI			RTIP			RTOE			RMT1			RMT5			RHEE			RHPS			RHTS			RANK			*53			*54			*55			
		X1	Y1	Z1	X2	Y2	Z2	X3	Y3	Z3	X4	Y4	Z4	X5	Y5	Z5	X6	Y6	Z6	X7	Y7	Z7	X8	Y8	Z8	X9	Y9	Z9	X10	Y10	Z10	X11	Y11	Z11	X12	Y12	Z12	X13	Y13	Z13	X14	Y14	Z14	X15	Y15	Z15	X16	Y16	Z16	X17	Y17	Z17	X18	Y18	Z18	X19	Y19	Z19	X20	Y20	Z20	X21	Y21	Z21	X22	Y22	Z22	X23	Y23	Z23	X24	Y24	Z24	X25	Y25	Z25	X26	Y26	Z26	X27	Y27	Z27	X28	Y28	Z28	X29	Y29	Z29	X30	Y30	Z30	X31	Y31	Z31	X32	Y32	Z32	X33	Y33	Z33	X34	Y34	Z34	X35	Y35	Z35	X36	Y36	Z36	X37	Y37	Z37	X38	Y38	Z38	X39	Y39	Z39	X40	Y40	Z40	X41	Y41	Z41	X42	Y42	Z42	X43	Y43	Z43	X44	Y44	Z44	X45	Y45	Z45	X46	Y46	Z46	X47	Y47	Z47	X48	Y48	Z48	X49	Y49	Z49	X50	Y50	Z50	X51	Y51	Z51	X52	Y52	Z52	X53	Y53	Z53	X54	Y54	Z54	X55	Y55	Z55	X56	Y56	Z56	

298	2.97	559.6904907226562	1004.900207519531	-132.6342926025391	384.1758117675781	997.2786865234375	-125.2084579467773	470.9820251464844	1069.402587890625	-145.0234222412109	454.4592895507812	1249.386474609375	-391.1557006835938	475.72998046875	1182.741455078125	-125.4850387573242	460.2292175292969	1428.91796875	-166.9949035644531	455.3396301269531	1348.764892578125	-326.3498229980469	537.7105102539062	1289.769897460938	-122.3598251342773	354.9053649902344	1393.076416015625	-145.7524719238281	296.9945678710938	1399.937133789062	-234.1442413330078	223.3858032226562	1283.506225585938	-206.2313537597656	201.7628326416016	1080.512817382812	-214.5080413818359	264.5749816894531	1065.810791015625	-154.5653839111328	244.2372131347656	861.8457641601562	-303.3023681640625	181.201171875	850.2509155273438	-268.7823181152344	189.1747894287109	977.5563354492188	-232.0970916748047	237.6909484863281	677.193359375	-311.7824401855469	182.3911437988281	762.1248779296875	-275.1947631835938	221.7649230957031	764.5151977539062	-328.4542236328125	613.4478149414062	1403.90869140625	-244.9367980957031	678.688720703125	1344.964965820312	-242.0021209716797	726.9652099609375	1080.168090820312	-223.2521057128906	639.5491333007812	1074.6875	-188.8675994873047	677.7921142578125	845.3112182617188	-298.1182250976562	753.282958984375	849.56298828125	-259.5661010742188	740.2442016601562	1012.406372070312	-242.8317260742188	681.0438842773438	660.20361328125	-275.0447387695312	537.3333740234375	1574.0185546875	-182.3123016357422	400.3834228515625	1646.200439453125	-328.1444396972656	492.5252075195312	1643.2666015625	-338.7150268554688	392.0230407714844	1569.306396484375	-169.2332763671875	284.9138488769531	949.9725341796875	-189.7449645996094	645.807861328125	954.2681884765625	-228.4862213134766	579.3970336914062	957.0708618164062	-358.0079040527344	328.1189880371094	959.589599609375	-330.7671508789062	298.1217041015625	485.7181091308594	-271.3106689453125	280.4698181152344	628.3961181640625	-257.6465759277344	304.4551696777344	45.00896072387695	-189.4047241210938	292.11572265625	261.6231384277344	-224.4781646728516	364.6404113769531	36.73413848876953	-395.5442810058594	404.1000061035156	26.53965187072754	-324.3585815429688	292.9701232910156	40.59694671630859	-312.1630249023438	363.5796203613281	36.1027717590332	-141.9209594726562	610.2008666992188	480.5182495117188	-255.0389709472656	642.9216918945312	740.1665649414062	-296.2990417480469	596.8469848632812	359.8003540039062	-261.348388671875	519.0084838867188	39.15068817138672	-392.7759094238281	481.5579833984375	38.06809616088867	-333.3931274414062	594.9691162109375	28.17787170410156	-302.8466796875	532.4490966796875	37.87947463989258	-144.7613220214844	751.3778686523438	735.0565185546875	-266.79150390625	691.9942626953125	723.7015380859375	-307.2465515136719	581.0995483398438	38.62919998168945	-198.8523712158203	nan	nan	nan	nan	nan	nan	nan	nan	nan	
299	2.98	558.6156616210938	1005.101623535156	-132.8098754882812	383.0325927734375	997.4954223632812	-125.7852630615234	469.8652954101562	1069.472045898438	-145.4645690917969	453.8032836914062	1249.398559570312	-391.551513671875	474.4483642578125	1182.759399414062	-125.8712921142578	458.9853820800781	1428.930419921875	-167.4239654541016	454.5518493652344	1348.773681640625	-326.780517578125	536.2420654296875	1289.80029296875	-122.6719589233398	353.6140747070312	1393.035034179688	-146.4798736572266	295.9564208984375	1399.8603515625	-235.0509796142578	222.2445373535156	1283.349365234375	-207.4303588867188	200.9629516601562	1080.254150390625	-215.9698638916016	263.4783630371094	1065.69970703125	-155.6445159912109	244.4973449707031	861.4873046875	-304.2018432617188	181.2564086914062	849.8190307617188	-270.0983276367188	188.6903381347656	977.2412109375	-233.5516204833984	238.4624328613281	676.8434448242188	-312.3263854980469	182.6567230224609	761.7175903320312	-276.3493347167969	222.4447174072266	764.0364990234375	-329.2894287109375	612.4363403320312	1404.026977539062	-244.8719482421875	677.7506713867188	1345.1708984375	-241.649658203125	726.0108642578125	1080.438720703125	-222.1324920654297	638.4436645507812	1075.027954101562	-188.1074371337891	677.1212158203125	845.6156616210938	-297.0434265136719	752.31982421875	849.6860961914062	-258.0176696777344	739.3518676757812	1012.613830566406	-241.5208282470703	679.947021484375	660.4646606445312	-273.8157958984375	536.1648559570312	1574.036743164062	-182.6892395019531	399.1949157714844	1646.2373046875	-328.4873046875	491.3727722167969	1643.377685546875	-339.0583801269531	390.8274536132812	1569.168701171875	-169.6276092529297	283.9444580078125	950.1747436523438	-190.0926361083984	645.3169555664062	954.4035034179688	-228.5314025878906	578.7584838867188	957.098876953125	-358.1099548339844	327.5283813476562	959.5342407226562	-331.412109375	297.7047119140625	485.6810302734375	-270.3164978027344	280.0299072265625	628.3781127929688	-257.1639709472656	304.4207153320312	44.94697189331055	-189.3652648925781	291.9198608398438	261.5950622558594	-223.7969970703125	364.6469421386719	36.77002716064453	-395.4819030761719	404.0670471191406	26.53733444213867	-324.325927734375	292.9483947753906	40.57076263427734	-312.15380859375	363.4671325683594	36.02972412109375	-141.8858642578125	609.7898559570312	480.5748291015625	-254.7124481201172	642.3441162109375	740.1636962890625	-296.0932006835938	596.5390625	359.9016418457031	-261.0922546386719	518.9830322265625	39.16636276245117	-392.7816162109375	481.5259094238281	38.04388427734375	-333.3818664550781	594.9229736328125	28.20920372009277	-302.83544921875	532.3663940429688	37.85157012939453	-144.7528076171875	750.3054809570312	735.1834716796875	-265.1842956542969	690.8579711914062	723.7572021484375	-305.66796875	581.0242309570312	38.68605041503906	-198.8377838134766	nan	nan	nan	nan	nan	nan	nan	nan	nan	
300	2.99	557.5599975585938	1005.301696777344	-132.9297790527344	381.9036865234375	997.6968994140625	-126.3359298706055	468.7335815429688	1069.524291992188	-145.8874969482422	453.1957702636719	1249.403442382812	-391.9442138671875	473.1490783691406	1182.767944335938	-126.2715911865234	457.7387390136719	1428.942260742188	-167.8417510986328	453.7763366699219	1348.776000976562	-327.1963806152344	534.7626342773438	1289.837646484375	-122.9662704467773	352.3107604980469	1392.981323242188	-147.2141265869141	294.9185791015625	1399.766967773438	-235.9766845703125	221.1150970458984	1283.164672851562	-208.6827392578125	200.1712188720703	1079.996337890625	-217.4782409667969	262.3666687011719	1065.575561523438	-156.7504119873047	244.7680053710938	861.10107421875	-305.1007385253906	181.31396484375	849.379150390625	-271.4326477050781	188.2197265625	976.9176025390625	-235.0412445068359	239.2114105224609	676.44580078125	-312.8202819824219	182.8694763183594	761.2951049804688	-277.5174560546875	223.1363220214844	763.5286254882812	-330.099609375	611.4365234375	1404.1416015625	-244.7745056152344	676.813232421875	1345.357543945312	-241.2692413330078	725.0631103515625	1080.684936523438	-221.1734619140625	637.339111328125	1075.330200195312	-187.4897308349609	676.427734375	845.938720703125	-296.2518615722656	751.3651733398438	849.8179321289062	-256.7828979492188	738.4459228515625	1012.81103515625	-240.4259796142578	678.9013671875	660.7201538085938	-272.9641723632812	534.9927978515625	1574.055053710938	-183.0489959716797	398.0206298828125	1646.259643554688	-328.8450622558594	490.2333984375	1643.47607421875	-339.4009399414062	389.6080627441406	1569.048706054688	-170.0347290039062	282.9739074707031	950.3405151367188	-190.5395812988281	644.8448486328125	954.5343017578125	-228.522705078125	578.139404296875	957.1227416992188	-358.1580505371094	326.96533203125	959.459716796875	-332.0410766601562	297.2740173339844	485.6405029296875	-269.3907470703125	279.5859985351562	628.3561401367188	-256.7253112792969	304.3861389160156	44.88468933105469	-189.3275756835938	291.7399597167969	261.5599670410156	-223.1500091552734	364.6521911621094	36.80440521240234	-395.4208679199219	404.0360717773438	26.53986167907715	-324.2952270507812	292.9241027832031	40.54027938842773	-312.1430358886719	363.3557739257812	35.96072006225586	-141.8543548583984	609.4271240234375	480.6254272460938	-254.3461151123047	641.7756958007812	740.1769409179688	-295.7965087890625	596.2530517578125	359.99658203125	-260.8203430175781	518.9617919921875	39.18356704711914	-392.7872009277344	481.4996948242188	38.02358627319336	-333.3713073730469	594.8853759765625	28.24149894714355	-302.8309936523438	532.2919311523438	37.82221603393555	-144.7463226318359	749.2543334960938	735.3269653320312	-263.9707336425781	689.7589111328125	723.8426513671875	-304.4756469726562	580.9580078125	38.74716567993164	-198.8236999511719	nan	nan	nan	nan	nan	nan	nan	nan	nan	
301	3	556.5175170898438	1005.494873046875	-133.0047454833984	380.8057250976562	997.8836669921875	-126.856315612793	467.6096496582031	1069.556640625	-146.2821350097656	452.6418151855469	1249.39697265625	-392.3327941894531	471.8389282226562	1182.76953125	-126.6817932128906	456.4929504394531	1428.95458984375	-168.2493591308594	453.01708984375	1348.771240234375	-327.5966796875	533.2927856445312	1289.88232421875	-123.2316741943359	351.0000610351562	1392.921875	-147.9568481445312	293.8822326660156	1399.657958984375	-236.9213104248047	220.0179901123047	1282.951782226562	-209.9878387451172	199.3908081054688	1079.739990234375	-219.0229187011719	261.2375793457031	1065.437255859375	-157.8758850097656	245.0334320068359	860.7006225585938	-306.00634765625	181.370849609375	848.9398193359375	-272.7812194824219	187.7688751220703	976.5880126953125	-236.5564727783203	239.9195556640625	676.0094604492188	-313.2813720703125	183.0472259521484	760.8622436523438	-278.6908569335938	223.8301391601562	763.0096435546875	-330.8931884765625	610.4435424804688	1404.252807617188	-244.6515045166016	675.8734741210938	1345.526245117188	-240.8706207275391	724.1175537109375	1080.904541015625	-220.3767700195312	636.2373657226562	1075.589233398438	-187.0119018554688	675.6978759765625	846.2614135742188	-295.7278137207031	750.4210205078125	849.9589233398438	-255.8607482910156	737.524658203125	1012.996826171875	-239.5487365722656	677.9027709960938	660.968017578125	-272.4812316894531	533.816162109375	1574.076416015625	-183.3925933837891	396.8606262207031	1646.26513671875	-329.2192077636719	489.1035766601562	1643.565551757812	-339.7398681640625	388.3727111816406	1568.948364257812	-170.4609680175781	282.01025390625	950.4794311523438	-191.0897064208984	644.3905029296875	954.65380859375	-228.4650115966797	577.5386962890625	957.135986328125	-358.1571044921875	326.4100952148438	959.3639526367188	-332.648193359375	296.8493957519531	485.5930480957031	-268.5498046875	279.1274719238281	628.3380737304688	-256.3612060546875	304.3498229980469	44.82199859619141	-189.2926330566406	291.5781555175781	261.5197143554688	-222.5462493896484	364.6561279296875	36.83599090576172	-395.362060546875	404.0069580078125	26.54795837402344	-324.2664489746094	292.8973083496094	40.50707244873047	-312.1298522949219	363.2497863769531	35.89748764038086	-141.8258514404297	609.1089477539062	480.6723327636719	-253.9430236816406	641.2236938476562	740.1943359375	-295.4327697753906	595.9868774414062	360.0835571289062	-260.53759765625	518.9426879882812	39.20096969604492	-392.7930908203125	481.4775390625	38.00667572021484	-333.3620910644531	594.8555297851562	28.27700614929199	-302.8321838378906	532.224365234375	37.79396820068359	-144.7420043945312	748.2278442382812	735.4863891601562	-263.1432495117188	688.696533203125	723.956787109375	-303.6635131835938	580.89794921875	38.81253814697266	-198.8091735839844	nan	nan	nan	nan	nan	nan	nan	nan	nan	
